#!OML:ASF Y:\EmotionMaleHayes\Project 1\Capture day 1\Session 1\Male1.ASF
:FULLY-SPECIFIED
:DEGREES
1520
root 16.1409 16.5737 -11.1519 367.099 -35.089 704.478
lowerback 6.62413 6.05957 10.486
upperback 0.877938 8.83439 2.3171
thorax -1.57113 4.33436 -3.97765
lowerneck -21.9689 -4.27201 -0.982453
upperneck 18.5235 -5.18256 -1.67486
head 9.43872 -2.68121 -1.16337
rclavicle -8.35393e-014 -4.65156e-014
rhumerus -11.4609 13.724 -80.3781
rradius 47.1925
rwrist 0.318369
rhand -15.0695 -33.6236
rfingers 7.12502
rthumb 11.0977 -63.3102
lclavicle -8.35393e-014 -4.65156e-014
lhumerus -51.1295 2.15137 80.1426
lradius 28.0591
lwrist -6.64585
lhand -11.7466 -22.4161
lfingers 7.12502
lthumb 14.3012 7.07144
rfemur 21.0558 -6.57758 31.7625
rtibia 7.42596
rfoot -23.8707 4.41437
rtoes -10.3316
lfemur -21.3173 4.34753 -7.18575
ltibia 3.29399
lfoot -11.4406 13.9144
ltoes 12.1689
1521
root 16.0647 16.5605 -11.0433 367.055 -35.201 704.931
lowerback 6.39829 6.14015 10.043
upperback 0.818391 8.88523 2.07807
thorax -1.52885 4.36547 -3.96628
lowerneck -22.1399 -4.32455 -0.746464
upperneck 18.6115 -5.3238 -1.69994
head 9.49058 -2.73193 -1.23608
rclavicle -1.14301e-014 -2.50469e-014
rhumerus -11.7495 14.1403 -81.0158
rradius 47.5679
rwrist 0.476465
rhand -15.5527 -34.0303
rfingers 7.12502
rthumb 10.6316 -63.7413
lclavicle -1.14301e-014 -2.50469e-014
lhumerus -51.0413 2.21985 80.1045
lradius 27.9715
lwrist -6.84316
lhand -12.1269 -22.1693
lfingers 7.12502
lthumb 13.9347 7.34375
rfemur 21.178 -6.19172 31.4645
rtibia 7.65677
rfoot -23.8675 4.36106
rtoes -9.47399
lfemur -21.5415 5.51494 -7.88281
ltibia 3.94853
lfoot -10.584 13.1863
ltoes 9.30221
1522
root 15.9874 16.5482 -10.9302 366.927 -35.3091 705.507
lowerback 6.19656 6.14017 9.51401
upperback 0.739612 8.82952 1.79749
thorax -1.54094 4.34103 -3.95322
lowerneck -22.0322 -4.37162 -1.21572
upperneck 18.3518 -5.36591 -1.13489
head 9.41199 -2.71908 -0.963842
rclavicle 5.60573e-014 -3.18055e-015
rhumerus -12.0637 14.9394 -81.7677
rradius 47.9574
rwrist 0.408447
rhand -15.6785 -34.469
rfingers 7.12502
rthumb 10.5103 -64.1863
lclavicle 5.60573e-014 -3.18055e-015
lhumerus -51.0265 2.42607 79.9674
lradius 27.9145
lwrist -7.04158
lhand -12.3517 -21.9789
lfingers 7.12502
lthumb 13.718 7.54893
rfemur 21.3232 -6.09488 30.8453
rtibia 7.9939
rfoot -23.8603 4.64641
rtoes -8.80268
lfemur -21.5284 5.5044 -8.42188
ltibia 4.4012
lfoot -10.433 13.3101
ltoes 9.37717
1523
root 15.9067 16.5379 -10.8146 366.85 -35.4762 705.956
lowerback 5.99932 6.14937 9.01196
upperback 0.684676 8.78917 1.58002
thorax -1.53405 4.32515 -3.88829
lowerneck -22.237 -4.44456 -1.79428
upperneck 18.4586 -5.42822 -0.468005
head 9.52426 -2.70833 -0.657061
rclavicle -1.9133e-014 0
rhumerus -12.3183 15.8166 -82.3637
rradius 48.1997
rwrist 0.670537
rhand -15.0098 -34.0558
rfingers 7.12502
rthumb 11.1553 -63.7393
lclavicle -1.9133e-014 0
lhumerus -51.0389 2.49329 79.9357
lradius 27.945
lwrist -7.13127
lhand -12.4173 -21.943
lfingers 7.12502
lthumb 13.6548 7.58913
rfemur 21.5416 -5.71113 30.5221
rtibia 8.26068
rfoot -23.7756 4.52444
rtoes -9.2484
lfemur -21.3956 5.08608 -8.68436
ltibia 4.93882
lfoot -10.4471 13.8402
ltoes 8.93653
1524
root 15.8242 16.53 -10.7003 366.815 -35.6965 706.325
lowerback 5.82349 6.26815 8.51585
upperback 0.633709 8.89936 1.40734
thorax -1.52211 4.38415 -3.78663
lowerneck -22.4157 -4.54907 -1.80947
upperneck 18.3877 -5.5598 -0.473155
head 9.53147 -2.77022 -0.678567
rclavicle 4.28381e-014 -1.59028e-015
rhumerus -12.631 16.3158 -82.8172
rradius 48.3715
rwrist 1.08253
rhand -14.5659 -33.4567
rfingers 7.12502
rthumb 11.5834 -63.1166
lclavicle 4.28381e-014 -1.59028e-015
lhumerus -51.0036 2.1626 80.1634
lradius 28.0791
lwrist -6.83723
lhand -12.0656 -22.1103
lfingers 7.12502
lthumb 13.9938 7.39874
rfemur 21.6807 -5.24104 30.2808
rtibia 8.63267
rfoot -23.6145 4.37557
rtoes -10.2612
lfemur -21.303 5.05721 -8.90727
ltibia 5.72196
lfoot -10.6032 14.2582
ltoes 8.91006
1525
root 15.7362 16.5233 -10.5816 366.869 -35.8581 706.511
lowerback 5.58173 6.3922 8.15303
upperback 0.581143 9.02026 1.27128
thorax -1.46077 4.44948 -3.70911
lowerneck -22.4184 -4.62175 -1.6983
upperneck 18.2266 -5.73159 -0.312534
head 9.47746 -2.82354 -0.662817
rclavicle 3.95581e-014 4.77083e-014
rhumerus -13.0763 16.6742 -83.2793
rradius 48.6493
rwrist 1.51139
rhand -14.0234 -33.1595
rfingers 7.12502
rthumb 12.1066 -62.7892
lclavicle 3.95581e-014 4.77083e-014
lhumerus -50.9361 1.99026 80.267
lradius 28.1716
lwrist -6.75677
lhand -11.6878 -22.4092
lfingers 7.12502
lthumb 14.3579 7.07424
rfemur 21.8082 -4.97709 30.1237
rtibia 9.08013
rfoot -23.5149 4.27144
rtoes -11.5228
lfemur -21.2843 6.10887 -9.20285
ltibia 6.65948
lfoot -10.461 14.2562
ltoes 8.72131
1526
root 15.6456 16.518 -10.4579 367.03 -35.9303 706.404
lowerback 5.35398 6.43902 8.05872
upperback 0.526871 9.05727 1.18053
thorax -1.38596 4.47126 -3.72647
lowerneck -22.2541 -4.77353 -2.26177
upperneck 17.9384 -5.94175 0.498356
head 9.39517 -2.86728 -0.315166
rclavicle -2.29596e-014 -1.03368e-014
rhumerus -13.5781 17.3259 -83.7868
rradius 48.9851
rwrist 1.68201
rhand -13.1578 -32.9983
rfingers 7.12502
rthumb 12.941 -62.577
lclavicle -2.29596e-014 -1.03368e-014
lhumerus -50.8949 1.97366 80.2083
lradius 28.2419
lwrist -6.78525
lhand -11.4708 -22.5916
lfingers 7.12502
lthumb 14.5669 6.87693
rfemur 22.1118 -4.34497 30.5832
rtibia 9.2977
rfoot -23.3788 3.66075
rtoes -11.3641
lfemur -21.1886 7.69704 -9.3407
ltibia 7.40111
lfoot -9.35499 14.4442
ltoes 9.7287
1527
root 15.5568 16.5149 -10.3342 367.196 -35.9816 706.213
lowerback 5.19017 6.45755 7.99159
upperback 0.464076 9.06613 1.14187
thorax -1.36329 4.47604 -3.71384
lowerneck -21.9962 -4.69807 -2.25058
upperneck 17.5171 -5.93993 0.939003
head 9.21768 -2.81908 -0.152774
rclavicle 1.30701e-014 -5.56597e-015
rhumerus -14.1893 18.3112 -84.3614
rradius 49.3179
rwrist 1.11268
rhand -13.1806 -33.1707
rfingers 7.12502
rthumb 12.9191 -62.7508
lclavicle 1.30701e-014 -5.56597e-015
lhumerus -50.8639 1.85552 80.2641
lradius 28.2985
lwrist -6.6384
lhand -11.5267 -22.6544
lfingers 7.12502
lthumb 14.5131 6.81798
rfemur 22.4921 -3.42604 31.3451
rtibia 9.46102
rfoot -23.1726 2.77826
rtoes -10.8099
lfemur -20.8474 8.708 -9.25461
ltibia 7.56524
lfoot -7.68155 15.6175
ltoes 12.5835
1528
root 15.4725 16.5143 -10.2055 367.094 -36.0274 706.642
lowerback 4.89621 6.44093 7.45279
upperback 0.400354 8.99001 0.954198
thorax -1.32653 4.44307 -3.58487
lowerneck -22.1587 -4.78703 -2.19146
upperneck 17.6149 -6.06456 0.873999
head 9.27763 -2.87849 -0.207635
rclavicle 5.17337e-014 -5.56597e-015
rhumerus -14.7895 19.0446 -85.0603
rradius 49.4898
rwrist 0.948531
rhand -13.5224 -33.4604
rfingers 7.12502
rthumb 12.5896 -63.061
lclavicle 5.17337e-014 -5.56597e-015
lhumerus -50.8377 1.80639 80.279
lradius 28.3548
lwrist -6.60825
lhand -11.2692 -23.1291
lfingers 7.12502
lthumb 14.7611 6.32527
rfemur 22.7404 -2.78474 31.3369
rtibia 9.81315
rfoot -22.9884 1.89621
rtoes -12.194
lfemur -20.3655 9.076 -9.71688
ltibia 7.13092
lfoot -6.2926 17.3928
ltoes 13.826
1529
root 15.389 16.518 -10.0731 366.843 -36.0785 707.3
lowerback 4.62325 6.41579 6.80127
upperback 0.368513 8.89898 0.684432
thorax -1.27272 4.40474 -3.47878
lowerneck -21.9349 -4.69337 -2.34262
upperneck 17.1606 -6.01687 1.47622
head 9.10608 -2.80245 0.0410929
rclavicle -9.159e-014 -1.35174e-014
rhumerus -15.225 19.5948 -85.7576
rradius 49.5139
rwrist 1.09827
rhand -13.5095 -33.6583
rfingers 7.12502
rthumb 12.602 -63.2582
lclavicle -9.159e-014 -1.35174e-014
lhumerus -50.7269 1.76027 80.2036
lradius 28.4132
lwrist -6.66174
lhand -10.8151 -23.5912
lfingers 7.12502
lthumb 15.1986 5.83055
rfemur 22.9295 -2.36106 30.9095
rtibia 10.2985
rfoot -22.7 1.32085
rtoes -13.6079
lfemur -19.7579 9.54095 -10.3561
ltibia 6.52481
lfoot -6.06492 18.5418
ltoes 14.8163
1530
root 15.3027 16.5271 -9.94261 366.577 -36.13 707.786
lowerback 4.49816 6.42897 6.2527
upperback 0.381825 8.87742 0.502717
thorax -1.2449 4.39942 -3.35446
lowerneck -22.4365 -4.82724 -2.18837
upperneck 17.4878 -6.21875 1.35043
head 9.30099 -2.89257 -0.0713425
rclavicle -2.44505e-014 -1.59028e-014
rhumerus -15.6446 20.2624 -86.3105
rradius 49.5173
rwrist 1.00923
rhand -13.3742 -33.4882
rfingers 7.12502
rthumb 12.7325 -63.08
lclavicle -2.44505e-014 -1.59028e-014
lhumerus -50.4534 1.69715 80.2036
lradius 28.4036
lwrist -6.55338
lhand -11.3917 -22.9771
lfingers 7.12502
lthumb 14.6431 6.48589
rfemur 23.115 -2.01759 30.5214
rtibia 10.8646
rfoot -22.1834 1.31318
rtoes -13.2293
lfemur -19.0873 10.2267 -10.7753
ltibia 6.09729
lfoot -6.33841 18.6311
ltoes 15.3978
1531
root 15.2195 16.5394 -9.8108 366.231 -36.0951 708.435
lowerback 4.3935 6.42465 5.66144
upperback 0.364165 8.83369 0.251682
thorax -1.25787 4.38116 -3.28171
lowerneck -22.7031 -4.95969 -2.22084
upperneck 17.5924 -6.44788 1.61635
head 9.3992 -2.9661 -0.0159354
rclavicle -5.46658e-015 1.90833e-014
rhumerus -16.2366 20.9785 -86.874
rradius 49.5411
rwrist 0.85483
rhand -13.5509 -33.1428
rfingers 7.12502
rthumb 12.5621 -62.7451
lclavicle -5.46658e-015 1.90833e-014
lhumerus -50.1841 1.51249 80.2985
lradius 28.4265
lwrist -6.25186
lhand -10.9281 -23.6821
lfingers 7.12502
lthumb 15.0898 5.7479
rfemur 23.2771 -1.63183 30.1001
rtibia 11.4204
rfoot -21.6053 1.12564
rtoes -12.7756
lfemur -18.5934 10.9346 -11.4779
ltibia 5.98339
lfoot -5.68008 17.8623
ltoes 13.8775
1532
root 15.1364 16.5536 -9.67545 365.882 -36.0254 709.131
lowerback 4.20298 6.39897 5.02133
upperback 0.336161 8.7555 -0.0189571
thorax -1.24069 4.34663 -3.19111
lowerneck -22.6964 -5.07386 -2.6797
upperneck 17.4121 -6.58036 2.19739
head 9.37644 -2.99248 0.239855
rclavicle 2.56432e-014 2.38542e-015
rhumerus -16.9182 21.6713 -87.4699
rradius 49.5823
rwrist 0.596961
rhand -13.7624 -32.94
rfingers 7.12502
rthumb 12.3582 -62.5548
lclavicle 2.56432e-014 2.38542e-015
lhumerus -49.8999 1.61154 80.1862
lradius 28.3571
lwrist -6.42982
lhand -10.8549 -23.868
lfingers 7.12502
lthumb 15.1603 5.55664
rfemur 23.4406 -1.19544 29.7543
rtibia 11.995
rfoot -21.0378 0.579121
rtoes -12.5234
lfemur -18.1916 11.653 -12.2658
ltibia 6.14492
lfoot -4.65422 16.7071
ltoes 13.8884
